<svg width="24.000000" height="24.000000" viewBox="0 0 24 24" fill="none" xmlns="http://www.w3.org/2000/svg" xmlns:xlink="http://www.w3.org/1999/xlink">
	<desc>
			Created with Pixso.
	</desc>
	<defs>
		<clipPath id="clip2636_3085">
			<rect id="ant-design:instagram-outlined" width="24.000000" height="24.000000" fill="white" fill-opacity="0"/>
		</clipPath>
		<clipPath id="clip2636_3084">
			<rect id="instagram" width="24.000000" height="24.000000" fill="white" fill-opacity="0"/>
		</clipPath>
	</defs>
	<g clip-path="url(#clip2636_3084)">
		<rect id="ant-design:instagram-outlined" width="24.000000" height="24.000000" fill="#FFFFFF" fill-opacity="0"/>
		<g clip-path="url(#clip2636_3085)">
			<path id="Vector" d="M12.5 1C9.51562 1 9.13867 1.01367 7.9668 1.06641C6.79297 1.12109 5.99414 1.30566 5.29492 1.57715C4.56055 1.85352 3.89648 2.28711 3.3457 2.84668C2.78711 3.39648 2.35352 4.06152 2.07812 4.79492C1.80469 5.49316 1.61914 6.29395 1.56641 7.46289C1.51367 8.6377 1.5 9.01172 1.5 12.001C1.5 14.9883 1.51367 15.3623 1.56641 16.5352C1.62109 17.7061 1.80469 18.5049 2.07812 19.2051C2.35938 19.9287 2.73438 20.541 3.3457 21.1533C3.95703 21.7656 4.57031 22.1416 5.29297 22.4229C5.99414 22.6943 6.79297 22.8809 7.96484 22.9336C9.13867 22.9863 9.51172 23 12.5 23C15.4883 23 15.8613 22.9863 17.0352 22.9336C18.2051 22.8789 19.0059 22.6943 19.707 22.4229C20.4395 22.1465 21.1055 21.7129 21.6543 21.1533C22.2656 20.541 22.6406 19.9287 22.9219 19.2051C23.1934 18.5049 23.3789 17.7061 23.4336 16.5352C23.4863 15.3623 23.5 14.9883 23.5 12C23.5 9.01172 23.4863 8.6377 23.4336 7.46387C23.3789 6.29395 23.1934 5.49316 22.9219 4.79492C22.6465 4.06152 22.2129 3.39648 21.6543 2.84668C21.1035 2.28613 20.4395 1.85352 19.7051 1.57715C19.0039 1.30566 18.2031 1.11914 17.0332 1.06641C15.8594 1.01367 15.4863 1 12.498 1L12.502 1L12.5 1ZM11.5137 2.98242L12.502 2.98242C15.4375 2.98242 15.7871 2.99219 16.9453 3.0459C18.0176 3.09375 18.6016 3.27441 18.9883 3.42383C19.502 3.62305 19.8691 3.8623 20.2539 4.24805C20.6387 4.63281 20.877 4.99805 21.0762 5.5127C21.2266 5.89941 21.4062 6.48242 21.4531 7.55469C21.5078 8.71387 21.5195 9.06152 21.5195 11.9971C21.5195 14.9326 21.5078 15.2822 21.4531 16.4414C21.4062 17.5137 21.2266 18.0957 21.0762 18.4834C20.9004 18.9609 20.6172 19.3926 20.252 19.7471C19.8672 20.1318 19.502 20.3691 18.9863 20.5693C18.6016 20.7207 18.0195 20.8994 16.9453 20.9482C15.7871 21.001 15.4375 21.0127 12.502 21.0127C9.56445 21.0127 9.21484 21.001 8.05664 20.9482C6.98438 20.8994 6.40234 20.7207 6.01367 20.5693C5.53711 20.3926 5.10352 20.1123 4.75 19.7471C4.38281 19.3916 4.10156 18.96 3.92383 18.4814C3.77344 18.0957 3.59375 17.5127 3.54688 16.4395C3.49414 15.2803 3.48242 14.9326 3.48242 11.9941C3.48242 9.05762 3.49414 8.71094 3.54688 7.55176C3.5957 6.47949 3.77344 5.89648 3.92578 5.50879C4.125 4.99609 4.36328 4.62891 4.75 4.24316C5.13477 3.8584 5.5 3.62109 6.01367 3.4209C6.40234 3.27051 6.98438 3.0918 8.05664 3.04199C9.07031 2.99512 9.46484 2.98145 11.5137 2.98047L11.5137 2.98242ZM18.373 4.80859C18.1992 4.80859 18.0273 4.84277 17.8672 4.90918C17.707 4.97559 17.5625 5.07324 17.4395 5.19531C17.3164 5.31836 17.2188 5.46387 17.1523 5.62402C17.0859 5.78418 17.0527 5.95508 17.0527 6.12891C17.0527 6.30176 17.0859 6.47363 17.1523 6.63379C17.2188 6.79395 17.3164 6.93945 17.4395 7.0625C17.5625 7.18457 17.707 7.28223 17.8672 7.34863C18.0273 7.41504 18.1992 7.44922 18.373 7.44922C18.7227 7.44922 19.0586 7.30957 19.3066 7.0625C19.5527 6.81445 19.6934 6.47852 19.6934 6.12891C19.6934 5.77832 19.5527 5.44336 19.3066 5.19531C19.0586 4.94824 18.7227 4.80859 18.373 4.80859ZM12.502 6.35156C11.752 6.33984 11.0078 6.47754 10.3125 6.75586C9.61719 7.03418 8.98438 7.44922 8.44922 7.97461C7.91602 8.5 7.49219 9.12695 7.20117 9.81836C6.91211 10.5098 6.76367 11.251 6.76367 12.001C6.76367 12.75 6.91211 13.4922 7.20117 14.1836C7.49219 14.874 7.91602 15.501 8.44922 16.0264C8.98438 16.5527 9.61719 16.9668 10.3125 17.2451C11.0078 17.5244 11.752 17.6611 12.502 17.6494C13.9844 17.627 15.3984 17.0215 16.4395 15.9648C17.4805 14.9072 18.0625 13.4834 18.0625 12.001C18.0625 10.5176 17.4805 9.09375 16.4395 8.03711C15.3984 6.98047 13.9844 6.375 12.502 6.35156ZM12.502 8.33301C13.4746 8.33301 14.4062 8.71875 15.0938 9.40723C15.7812 10.0947 16.168 11.0273 16.168 12C16.168 12.9727 15.7812 13.9053 15.0938 14.5928C14.4062 15.2812 13.4746 15.667 12.502 15.667C11.5293 15.667 10.5957 15.2812 9.9082 14.5928C9.2207 13.9053 8.83398 12.9727 8.83398 12C8.83398 11.0273 9.2207 10.0947 9.9082 9.40723C10.5957 8.71875 11.5293 8.33301 12.502 8.33301Z" fill="#96BB7C" fill-opacity="1.000000" fill-rule="nonzero"/>
		</g>
	</g>
</svg>
