<svg width="24.000000" height="19.764648" viewBox="0 0 24 19.7646" fill="none" xmlns="http://www.w3.org/2000/svg" xmlns:xlink="http://www.w3.org/1999/xlink">
	<desc>
			Created with Pixso.
	</desc>
	<defs>
		<clipPath id="clip2636_3088">
			<rect id="ant-design:twitter-outlined" width="24.000000" height="19.764706" fill="white" fill-opacity="0"/>
		</clipPath>
		<clipPath id="clip2636_3087">
			<rect id="twitter" width="24.000000" height="19.764706" fill="white" fill-opacity="0"/>
		</clipPath>
	</defs>
	<g clip-path="url(#clip2636_3087)">
		<rect id="ant-design:twitter-outlined" width="24.000000" height="19.764706" fill="#FFFFFF" fill-opacity="0"/>
		<g clip-path="url(#clip2636_3088)">
			<path id="Vector" d="M8.41016 18.8828C16.7129 18.8828 21.2539 11.9561 21.2539 5.95996C21.2539 5.76562 21.2539 5.56934 21.2461 5.375C22.1309 4.73047 22.8945 3.93262 23.5 3.01855C22.6738 3.38574 21.7988 3.62695 20.9023 3.73633C21.8457 3.16797 22.5527 2.27344 22.8926 1.2207C22.0059 1.74902 21.0352 2.12109 20.0234 2.31836C19.3418 1.58887 18.4414 1.10547 17.4609 0.943359C16.4805 0.780273 15.4746 0.949219 14.5977 1.4209C13.7207 1.89258 13.0234 2.64258 12.6133 3.55469C12.2031 4.46582 12.1035 5.48828 12.3281 6.46387C10.5332 6.37305 8.77734 5.90332 7.17383 5.08594C5.57227 4.26758 4.1582 3.11914 3.02344 1.71582C2.44727 2.7168 2.27148 3.90137 2.53125 5.02832C2.79297 6.15527 3.46875 7.13965 4.42383 7.7832C3.70703 7.75879 3.00781 7.56543 2.38086 7.21777L2.38086 7.28027C2.38086 8.3291 2.74219 9.3457 3.40234 10.1572C4.06055 10.9688 4.97852 11.5264 5.99805 11.7354C5.61133 11.8438 5.21094 11.8965 4.81055 11.8955C4.52539 11.8955 4.24414 11.8691 3.96484 11.8164C4.25391 12.7188 4.81641 13.5078 5.57227 14.0732C6.32812 14.6387 7.24023 14.9521 8.18164 14.9688C6.58203 16.2344 4.60742 16.9199 2.57227 16.917C2.21484 16.918 1.85547 16.8975 1.5 16.8545C3.56445 18.1797 5.96289 18.8838 8.41016 18.8828Z" fill="#96BB7C" fill-opacity="1.000000" fill-rule="nonzero"/>
		</g>
	</g>
</svg>
