<svg width="41" height="40" viewBox="0 0 41 40" fill="none" xmlns="http://www.w3.org/2000/svg">
<rect x="1" y="0.5" width="39" height="39" rx="19.5" stroke="#266294"/>
<path d="M13.5176 28H11.1641V15.7148H6.98438V13.7227H17.6875V15.7148H13.5176V28ZM28.4785 27.9902L27.1113 22.9609C27.0462 22.7135 26.9681 22.4141 26.877 22.0625C26.7858 21.7109 26.6947 21.3496 26.6035 20.9785C26.5124 20.6009 26.4277 20.2526 26.3496 19.9336C26.278 19.6146 26.2227 19.3672 26.1836 19.1914H26.1055C26.0729 19.3672 26.0208 19.6146 25.9492 19.9336C25.8776 20.2526 25.7962 20.6009 25.7051 20.9785C25.6139 21.3561 25.5228 21.724 25.4316 22.082C25.347 22.4401 25.2689 22.7461 25.1973 23L23.7617 27.9902H21.2422L18.2148 17.1797H20.5391L21.9453 22.5508C22.0365 22.9154 22.1243 23.3092 22.209 23.7324C22.3001 24.1556 22.3783 24.5592 22.4434 24.9434C22.5085 25.3275 22.5573 25.6432 22.5898 25.8906H22.668C22.694 25.7148 22.7298 25.4935 22.7754 25.2266C22.821 24.9531 22.873 24.6699 22.9316 24.377C22.9902 24.0775 23.0488 23.7975 23.1074 23.5371C23.166 23.2702 23.2214 23.0553 23.2734 22.8926L24.9336 17.1797H27.4434L29.0352 22.8926C29.1068 23.14 29.1849 23.4525 29.2695 23.8301C29.3542 24.2012 29.429 24.5755 29.4941 24.9531C29.5658 25.3242 29.6113 25.6335 29.6309 25.8809H29.709C29.735 25.6595 29.7806 25.36 29.8457 24.9824C29.9173 24.5983 29.9987 24.1914 30.0898 23.7617C30.181 23.3255 30.2754 22.9219 30.373 22.5508L31.8086 17.1797H34.0938L31.0469 27.9902H28.4785Z" fill="#266294"/>
</svg>
