<svg width="24.000000" height="24.000000" viewBox="0 0 24 24" fill="none" xmlns="http://www.w3.org/2000/svg" xmlns:xlink="http://www.w3.org/1999/xlink">
	<desc>
			Created with Pixso.
	</desc>
	<defs>
		<clipPath id="clip2636_3063">
			<rect id="bx:bx-phone" width="24.000000" height="24.000000" fill="white" fill-opacity="0"/>
		</clipPath>
	</defs>
	<rect id="bx:bx-phone" width="24.000000" height="24.000000" fill="#FFFFFF" fill-opacity="0"/>
	<g clip-path="url(#clip2636_3063)">
		<path id="Vector" d="M18.8477 12.3516C18.7363 12.2402 18.6035 12.1514 18.459 12.0918C18.3125 12.0312 18.1562 12 18 12C17.8418 12 17.6855 12.0312 17.541 12.0918C17.3945 12.1514 17.2617 12.2402 17.1504 12.3516L15.2383 14.2646C14.3516 14.001 12.6973 13.4004 11.6484 12.3516C10.5996 11.3027 10 9.64844 9.73438 8.76172L11.6484 6.84863C11.7598 6.7373 11.8477 6.60547 11.9082 6.45898C11.9688 6.31348 12 6.1582 12 6C12 5.84277 11.9688 5.68652 11.9082 5.54102C11.8477 5.39551 11.7598 5.2627 11.6484 5.15137L6.84766 0.351562C6.73633 0.240234 6.60352 0.151367 6.45898 0.0917969C6.3125 0.03125 6.15625 0 6 0C5.8418 0 5.68555 0.03125 5.54102 0.0917969C5.39453 0.151367 5.26172 0.240234 5.15039 0.351562L1.89648 3.60645C1.44141 4.0625 1.18359 4.68848 1.19336 5.32812C1.2207 7.03711 1.67383 12.9717 6.35156 17.6494C11.0293 22.3271 16.9629 22.7783 18.6738 22.8076L18.707 22.8076C19.3418 22.8076 19.9395 22.5576 20.3926 22.1045L23.6484 18.8496C23.7598 18.7383 23.8477 18.6064 23.9082 18.4609C23.9688 18.3145 24 18.1592 24 18.001C24 17.8438 23.9688 17.6875 23.9082 17.542C23.8477 17.3965 23.7598 17.2646 23.6484 17.1533L18.8477 12.3516ZM18.6953 20.4062C17.1973 20.3809 12.0742 19.9785 8.04883 15.9521C4.00977 11.9121 3.61719 6.77051 3.59375 5.30273L6 2.89746L9.10352 6L7.55078 7.55176C7.41016 7.69238 7.30664 7.86621 7.25 8.05762C7.19336 8.24902 7.18359 8.45117 7.22461 8.64648C7.25391 8.78418 7.95703 12.0566 9.94922 14.0488C11.9414 16.04 15.2148 16.7451 15.3516 16.7734C15.5469 16.8154 15.75 16.8076 15.9414 16.751C16.1328 16.6943 16.3066 16.5898 16.4473 16.4482L18 14.8965L21.1035 18L18.6953 20.4062Z" fill="#96BB7C" fill-opacity="1.000000" fill-rule="nonzero"/>
	</g>
</svg>
