<svg width="24.000000" height="26.000000" viewBox="0 0 24 26" fill="none" xmlns="http://www.w3.org/2000/svg" xmlns:xlink="http://www.w3.org/1999/xlink">
	<desc>
			Created with Pixso.
	</desc>
	<defs>
		<clipPath id="clip2636_3071">
			<rect id="carbon:send-alt" width="24.000000" height="26.000000" fill="white" fill-opacity="0"/>
		</clipPath>
	</defs>
	<rect id="carbon:send-alt" width="24.000000" height="26.000000" fill="#FFFFFF" fill-opacity="0"/>
	<g clip-path="url(#clip2636_3071)">
		<path id="Vector" d="M-0.917969 5.7168C-0.755859 4.98047 -0.351562 4.32324 0.222656 3.85254C0.798828 3.38086 1.51367 3.125 2.25 3.125L21.75 3.125C22.4863 3.125 23.2012 3.38086 23.7773 3.85254C24.3516 4.32324 24.7559 4.98047 24.918 5.7168L12 13.8154L-0.917969 5.7168ZM-1 7.62012L-1 19.46L8.42969 13.5303L-1 7.62012ZM9.98633 14.5088L-0.689453 21.2197C-0.425781 21.79 -0.00976562 22.2725 0.511719 22.6094C1.03125 22.9473 1.63477 23.126 2.25 23.125L21.75 23.125C22.3652 23.125 22.9688 22.9463 23.4883 22.6084C24.0078 22.2705 24.4238 21.7891 24.6875 21.2188L14.0117 14.5068L12 15.7686L9.98633 14.5068L9.98633 14.5088ZM15.5703 13.5312L25 19.46L25 7.62012L15.5703 13.5303L15.5703 13.5312Z" fill="#96BB7C" fill-opacity="1.000000" fill-rule="evenodd"/>
	</g>
</svg>
