<svg width="20.000000" height="20.000000" viewBox="0 0 20 20" fill="none" xmlns="http://www.w3.org/2000/svg" xmlns:xlink="http://www.w3.org/1999/xlink">
	<desc>
			Created with Pixso.
	</desc>
	<defs>
		<clipPath id="clip2636_2813">
			<rect id="icn favorite" width="20.000000" height="20.000000" fill="white" fill-opacity="0"/>
		</clipPath>
	</defs>
	<rect id="icn favorite" width="20.000000" height="20.000000" fill="#FFFFFF" fill-opacity="0"/>
	<g clip-path="url(#clip2636_2813)">
		<path id="Vector" d="M14.0312 3.75C14.4863 3.74951 14.9375 3.83984 15.3555 4.01611C15.7754 4.19189 16.1562 4.4502 16.4746 4.7749C17.1309 5.44141 17.5 6.33936 17.5 7.2749C17.5 8.21045 17.1309 9.1084 16.4746 9.7749L10 16.3311L3.52539 9.7749C2.86914 9.1084 2.5 8.21045 2.5 7.2749C2.5 6.33936 2.86914 5.44141 3.52539 4.7749C3.84375 4.4502 4.22461 4.19238 4.64258 4.0166C5.0625 3.84033 5.51367 3.74951 5.96875 3.74951C6.42383 3.74951 6.87305 3.84033 7.29297 4.0166C7.71289 4.19238 8.09375 4.4502 8.41211 4.7749L10 6.3999L11.5801 4.7876C11.8984 4.45898 12.2793 4.19727 12.7012 4.01904C13.1211 3.84082 13.5742 3.74951 14.0312 3.75ZM14.0312 2.5C13.4102 2.49951 12.7949 2.62305 12.2207 2.86328C11.6484 3.104 11.1289 3.45605 10.6934 3.8999L10 4.6001L9.30664 3.8999C8.87109 3.45703 8.35156 3.10547 7.77734 2.86523C7.20508 2.625 6.58984 2.50146 5.96875 2.50146C5.34766 2.50146 4.73242 2.625 4.1582 2.86523C3.58594 3.10547 3.06641 3.45703 2.63086 3.8999C1.74414 4.80225 1.24805 6.0166 1.24805 7.28125C1.24805 8.5459 1.74414 9.76025 2.63086 10.6626L10 18.125L17.3691 10.6626C18.2539 9.76025 18.752 8.5459 18.752 7.28125C18.752 6.0166 18.2539 4.80225 17.3691 3.8999C16.9336 3.45703 16.4141 3.10498 15.8398 2.86426C15.2676 2.62402 14.6523 2.5 14.0312 2.5Z" fill="#BDBDBD" fill-opacity="1.000000" fill-rule="nonzero"/>
		<path id="Vector" d="M9.56055 4.15625L9.30664 3.8999C8.87109 3.45703 8.35156 3.10547 7.77734 2.86523C7.20508 2.625 6.58984 2.50146 5.96875 2.50146C5.34766 2.50146 4.73242 2.625 4.1582 2.86523C3.58594 3.10547 3.06641 3.45703 2.63086 3.8999C1.74414 4.80225 1.24805 6.0166 1.24805 7.28125C1.24805 8.5459 1.74414 9.76025 2.63086 10.6626L9.56055 17.6802L10 18.125L10.4395 17.6802L17.3691 10.6626C18.2539 9.76025 18.752 8.5459 18.752 7.28125C18.752 6.0166 18.2539 4.80225 17.3691 3.8999C16.9336 3.45703 16.4141 3.10498 15.8398 2.86426C15.2676 2.62402 14.6523 2.5 14.0312 2.5C13.4102 2.49951 12.7949 2.62305 12.2207 2.86328C11.6484 3.104 11.1289 3.45605 10.6934 3.8999L10.4395 4.15625L10 4.6001L9.56055 4.15625ZM10 17.2354L16.9238 10.2231Q17.2051 9.93701 17.4238 9.60938Q17.6543 9.26318 17.8145 8.87109Q17.9707 8.48877 18.0488 8.09131Q18.127 7.69385 18.127 7.28125Q18.127 6.86865 18.0488 6.47119Q17.9707 6.07373 17.8145 5.69141Q17.6582 5.30908 17.4355 4.9707Q17.2129 4.63232 16.9219 4.33789Q16.707 4.11768 16.4629 3.93555Q16.7051 4.11719 16.9219 4.3374Q17.2031 4.62402 17.4219 4.95312Q17.6523 5.29688 17.8105 5.68701Q17.9688 6.06885 18.0469 6.46582Q18.125 6.86279 18.125 7.2749Q18.125 7.6875 18.0469 8.08447Q17.9688 8.48145 17.8105 8.86279Q17.6543 9.24463 17.4316 9.58203Q17.209 9.91992 16.9199 10.2134L10 17.2207L3.08008 10.2144Q2.78711 9.91602 2.56055 9.57324Q2.3418 9.23926 2.1875 8.86279Q2.03125 8.48145 1.95312 8.08447Q1.875 7.6875 1.875 7.2749Q1.875 6.86279 1.95312 6.46582Q2.03125 6.06885 2.1875 5.68701Q2.34375 5.30566 2.56641 4.96777Q2.79102 4.63037 3.08008 4.33643Q3.27344 4.13818 3.49023 3.9707Q3.27344 4.13916 3.07617 4.33838Q2.78906 4.63086 2.56836 4.9668Q2.34375 5.30664 2.18555 5.69141Q2.0293 6.07324 1.95117 6.4707Q1.87305 6.86816 1.87305 7.28125Q1.87305 7.69434 1.95117 8.0918Q2.0293 8.48926 2.18555 8.87109Q2.3418 9.25342 2.56445 9.5918Q2.78711 9.93018 3.07617 10.2246L10 17.2354ZM8.49805 4.01074Q8.68555 4.16162 8.85742 4.33691L10 5.50635L11.1348 4.3501Q11.3984 4.07764 11.7012 3.86279Q12.0527 3.61475 12.457 3.44385Q12.834 3.28369 13.2285 3.2041Q13.3574 3.17773 13.4883 3.16016Q13.3574 3.17773 13.2266 3.2041Q12.8359 3.28271 12.4629 3.43994Q12.0859 3.59766 11.7559 3.82178Q11.4258 4.04639 11.1406 4.3374L10 5.48779L8.86133 4.33984Q8.6875 4.16309 8.49805 4.01074ZM10.4375 5.95361L10 6.3999L9.5625 5.95264L8.41211 4.7749C8.09375 4.4502 7.71289 4.19238 7.29297 4.0166C6.87305 3.84033 6.42383 3.74951 5.96875 3.74951C5.51367 3.74951 5.0625 3.84033 4.64258 4.0166C4.22461 4.19238 3.84375 4.4502 3.52539 4.7749C2.86914 5.44141 2.5 6.33936 2.5 7.2749C2.5 8.21045 2.86914 9.1084 3.52539 9.7749L9.56055 15.8867L10 16.3311L10.4395 15.8867L16.4746 9.7749C17.1309 9.1084 17.5 8.21045 17.5 7.2749C17.5 6.33936 17.1309 5.44141 16.4746 4.7749C16.1562 4.4502 15.7754 4.19189 15.3555 4.01611C14.9375 3.83984 14.4863 3.74951 14.0312 3.75C13.5742 3.74951 13.1211 3.84082 12.7012 4.01904C12.2793 4.19727 11.8984 4.45898 11.5801 4.7876L10.4375 5.95361Z" fill="#252B42" fill-opacity="1.000000" fill-rule="evenodd"/>
	</g>
</svg>
