<svg width="19.000000" height="19.000000" viewBox="0 0 19 19" fill="none" xmlns="http://www.w3.org/2000/svg" xmlns:xlink="http://www.w3.org/1999/xlink">
	<desc>
			Created with Pixso.
	</desc>
	<defs/>
	<path id="Vector" d="M0 0.633301C0 0.465332 0.0664062 0.304199 0.185547 0.185547C0.304688 0.0668945 0.464844 0 0.632812 0L2.5332 0C2.67383 0 2.8125 0.0473633 2.92383 0.134277C3.03516 0.221191 3.11328 0.342773 3.14844 0.47998L3.66016 2.5332L18.3672 2.5332C18.4609 2.5332 18.5527 2.5542 18.6367 2.59375C18.7207 2.6333 18.7949 2.69092 18.8535 2.76221C18.9141 2.83398 18.957 2.91748 18.9805 3.00781C19.0039 3.09766 19.0059 3.19189 18.9883 3.2832L17.0898 13.4165C17.0625 13.5615 16.9844 13.6929 16.8711 13.7871C16.7578 13.8813 16.6152 13.9331 16.4668 13.9331L5.06641 13.9331C4.91992 13.9331 4.77539 13.8813 4.66211 13.7871C4.54883 13.6929 4.47266 13.5615 4.44531 13.4165L2.54688 3.30225L2.03906 1.2666L0.632812 1.2666C0.464844 1.2666 0.304688 1.19971 0.185547 1.08105C0.0664062 0.962402 0 0.80127 0 0.633301ZM3.92969 3.7998L5.5918 12.6665L15.9414 12.6665L17.6055 3.7998L3.92969 3.7998ZM6.33398 13.9331C5.66211 13.9331 5.01758 14.2002 4.54297 14.6753C4.06641 15.1504 3.80078 15.7949 3.80078 16.4668C3.80078 17.1387 4.06641 17.7827 4.54297 18.2578C5.01758 18.7329 5.66211 19 6.33398 19C7.00586 19 7.65039 18.7329 8.125 18.2578C8.59961 17.7827 8.86719 17.1387 8.86719 16.4668C8.86719 15.7949 8.59961 15.1504 8.125 14.6753C7.65039 14.2002 7.00586 13.9331 6.33398 13.9331ZM15.2012 13.9331C14.5293 13.9331 13.8848 14.2002 13.4082 14.6753C12.9336 15.1504 12.668 15.7949 12.668 16.4668C12.668 17.1387 12.9336 17.7827 13.4082 18.2578C13.8848 18.7329 14.5293 19 15.2012 19C15.873 19 16.5176 18.7329 16.9922 18.2578C17.4668 17.7827 17.7344 17.1387 17.7344 16.4668C17.7344 15.7949 17.4668 15.1504 16.9922 14.6753C16.5176 14.2002 15.873 13.9331 15.2012 13.9331ZM6.33398 15.2002C6.66992 15.2002 6.99219 15.3335 7.22852 15.5708C7.4668 15.8086 7.59961 16.1309 7.59961 16.4668C7.59961 16.8027 7.4668 17.125 7.22852 17.3623C6.99219 17.6001 6.66992 17.7334 6.33398 17.7334C5.99805 17.7334 5.67578 17.6001 5.4375 17.3623C5.20117 17.125 5.06641 16.8027 5.06641 16.4668C5.06641 16.1309 5.20117 15.8086 5.4375 15.5708C5.67578 15.3335 5.99805 15.2002 6.33398 15.2002ZM15.2012 15.2002C15.5371 15.2002 15.8594 15.3335 16.0957 15.5708C16.334 15.8086 16.4668 16.1309 16.4668 16.4668C16.4668 16.8027 16.334 17.125 16.0957 17.3623C15.8594 17.6001 15.5371 17.7334 15.2012 17.7334C14.8652 17.7334 14.543 17.6001 14.3047 17.3623C14.0664 17.125 13.9336 16.8027 13.9336 16.4668C13.9336 16.1309 14.0664 15.8086 14.3047 15.5708C14.543 15.3335 14.8652 15.2002 15.2012 15.2002Z" fill="#252B42" fill-opacity="1.000000" fill-rule="nonzero"/>
</svg>
